<svg width="88" height="55" viewBox="0 0 88 55" fill="none" xmlns="http://www.w3.org/2000/svg">
<path d="M79.9921 19.353C81.317 17.3643 82.1335 14.9385 82.1335 12.2767C82.1335 5.40168 77.2446 0 70.889 0C64.5333 0 59.6445 5.40168 59.6445 12.2767C59.6445 14.9334 60.4609 17.3593 61.7859 19.353C59.9232 20.0061 58.2658 21.1013 56.9459 22.545C57.1072 21.6121 57.2002 20.6447 57.2002 19.6477C57.2002 11.2995 51.3334 4.91544 44.0003 4.91544C36.6672 4.91544 30.8004 11.2992 30.8004 19.6477C30.8004 20.6447 30.8934 21.6118 31.0546 22.545C29.7297 21.1061 28.0726 20.0063 26.2147 19.353C27.5396 17.3643 28.3561 14.9385 28.3561 12.2767C28.3561 5.40168 23.4673 0 17.1116 0C10.7559 0 5.8671 5.40168 5.8671 12.2767C5.8671 14.9334 6.68354 17.3593 8.0085 19.353C3.41749 20.9639 0 25.3736 0 30.4465V38.7947C0 40.2678 0.977709 41.2501 2.44455 41.2501C3.9114 41.2501 4.88911 40.2681 4.88911 38.7947V30.4465C4.88911 26.5179 7.82252 23.5714 11.7336 23.5714H12.7113C12.7113 23.5714 12.7113 23.5077 12.7113 23.5026C14.09 24.1703 15.5813 24.5535 17.1113 24.5535C18.6414 24.5535 20.1327 24.1705 21.5113 23.5026V23.5714H22.489C26.4001 23.5714 29.3335 26.5179 29.3335 30.4465C29.3335 30.5447 29.3726 30.6184 29.3776 30.7067C25.8135 33.2948 23.467 37.4785 23.467 42.2319V52.5445C23.467 54.0176 24.4447 55 25.9115 55C27.3781 55 28.3561 54.0179 28.3561 52.5445V42.2319C28.3561 37.3213 32.7561 32.9017 37.6449 32.9017H38.261C39.9967 33.82 41.9277 34.3748 44.0006 34.3748C46.0734 34.3748 47.9996 33.82 49.7401 32.9017H50.3562C55.2451 32.9017 59.645 37.3213 59.645 42.2319V52.5445C59.645 54.0176 60.6227 55 62.0896 55C63.5562 55 64.5341 54.0179 64.5341 52.5445V42.2319C64.5341 37.4833 62.1874 33.2945 58.6235 30.7067C58.6333 30.6133 58.6676 30.5396 58.6676 30.4465C58.6676 26.5179 61.601 23.5714 65.5121 23.5714H66.4898C66.4898 23.5714 66.4898 23.5077 66.4898 23.5026C67.8685 24.1703 69.3598 24.5535 70.8898 24.5535C72.4199 24.5535 73.9112 24.1705 75.2898 23.5026V23.5714H76.2675C80.1786 23.5714 83.112 26.5179 83.112 30.4465V38.7947C83.112 40.2678 84.0897 41.2501 85.5566 41.2501C87.0234 41.2501 88.0011 40.2681 88.0011 38.7947V30.4465C88 25.3688 84.5777 20.9639 79.9921 19.353ZM10.7556 12.2767C10.7556 8.34818 13.6891 4.91064 17.111 4.91064C20.533 4.91064 23.4664 8.34818 23.4664 12.2767C23.4664 16.2053 20.533 19.6429 17.111 19.6429C13.6891 19.6429 10.7556 16.2053 10.7556 12.2767ZM35.6889 19.6429C35.6889 14.2412 39.6 9.82157 44 9.82157C48.4 9.82157 52.3111 14.2412 52.3111 19.6429C52.3111 25.0445 48.8888 29.4641 44 29.4641C39.1112 29.4641 35.6889 25.0445 35.6889 19.6429ZM64.5333 12.2767C64.5333 8.34818 67.4667 4.91064 70.8887 4.91064C74.3107 4.91064 77.2441 8.34818 77.2441 12.2767C77.2441 16.2053 74.3107 19.6429 70.8887 19.6429C67.4667 19.6429 64.5333 16.2053 64.5333 12.2767Z" fill="black"/>
</svg>
