<svg width="88" height="88" viewBox="0 0 88 88" fill="none" xmlns="http://www.w3.org/2000/svg">
<path d="M73.1139 34.381C71.0826 29.6104 67.9113 25.4114 63.8783 22.1526C59.8453 18.8937 55.0741 16.6747 49.9833 15.6903L54.582 8.3325L49.918 5.4175L43.85 15.1264C37.669 15.1551 31.6318 16.994 26.4843 20.4159C21.3369 23.8378 17.3048 28.6928 14.8861 34.381C11.6464 34.4426 8.5601 35.7728 6.29071 38.0858C4.02133 40.3987 2.75 43.5097 2.75 46.75C2.75 49.9903 4.02133 53.1013 6.29071 55.4143C8.5601 57.7272 11.6464 59.0574 14.8861 59.119C17.3151 64.8306 21.3704 69.7016 26.5471 73.1255C31.7239 76.5494 37.7934 78.375 44 78.375C50.2066 78.375 56.2761 76.5494 61.4529 73.1255C66.6297 69.7016 70.685 64.8306 73.1139 59.119C76.3537 59.0574 79.4399 57.7272 81.7093 55.4143C83.9787 53.1013 85.25 49.9903 85.25 46.75C85.25 43.5097 83.9787 40.3987 81.7093 38.0858C79.4399 35.7728 76.3537 34.4426 73.1139 34.381ZM77.7807 51.5642C76.5228 52.8507 74.8084 53.5894 73.0094 53.62L69.4473 53.6877L68.0529 56.9661C66.0466 61.6852 62.6964 65.7098 58.4195 68.5389C54.1426 71.368 49.128 72.8764 44.0001 72.8764C38.8722 72.8764 33.8576 71.368 29.5807 68.5389C25.3038 65.7098 21.9536 61.6852 19.9473 56.9661L18.5527 53.6877L14.9906 53.62C13.1908 53.5863 11.4761 52.8477 10.2152 51.563C8.95436 50.2783 8.24796 48.5501 8.24796 46.75C8.24796 44.9499 8.95436 43.2217 10.2152 41.937C11.4761 40.6523 13.1908 39.9137 14.9906 39.88L18.5527 39.8123L19.9473 36.5339C21.9537 31.8149 25.3039 27.7903 29.5808 24.9613C33.8577 22.1323 38.8722 20.6239 44.0001 20.6239C49.128 20.6239 54.1425 22.1323 58.4194 24.9613C62.6963 27.7903 66.0465 31.8149 68.0529 36.5339L69.4473 39.8123L73.0094 39.88C74.3518 39.9054 75.6573 40.3235 76.7647 41.0827C77.872 41.8419 78.7327 42.9089 79.2402 44.1519C79.7478 45.3949 79.8801 46.7594 79.6207 48.0767C79.3613 49.394 78.7216 50.6065 77.7807 51.5642Z" fill="black"/>
<path d="M35.75 39.875H28.875V46.75H35.75V39.875Z" fill="black"/>
<path d="M59.125 39.875H52.25V46.75H59.125V39.875Z" fill="black"/>
<path d="M44 66C45.8057 66 47.5937 65.6443 49.2619 64.9533C50.9301 64.2623 52.4459 63.2495 53.7227 61.9727C54.9995 60.6959 56.0123 59.1801 56.7033 57.5119C57.3943 55.8437 57.75 54.0557 57.75 52.25H30.25C30.25 54.0557 30.6057 55.8437 31.2967 57.5119C31.9877 59.1801 33.0005 60.6959 34.2773 61.9727C36.8559 64.5513 40.3533 66 44 66Z" fill="black"/>
</svg>
