<svg width="88" height="88" viewBox="0 0 88 88" fill="none" xmlns="http://www.w3.org/2000/svg">
<path d="M13.5674 71.2076C14.0801 71.2076 14.4957 70.7913 14.4957 70.2777C14.4957 69.7641 14.0801 69.3478 13.5674 69.3478C13.0548 69.3478 12.6392 69.7641 12.6392 70.2777C12.6392 70.7913 13.0548 71.2076 13.5674 71.2076Z" fill="black"/>
<path d="M74.4449 71.2466C74.9575 71.2466 75.3731 70.8303 75.3731 70.3167C75.3731 69.8032 74.9575 69.3868 74.4449 69.3868C73.9322 69.3868 73.5166 69.8032 73.5166 70.3167C73.5166 70.8303 73.9322 71.2466 74.4449 71.2466Z" fill="black"/>
<path d="M77.0993 21.1698L83.3867 27.4683C83.7303 27.8127 84.3374 27.5592 84.3374 27.0738V21.1698H87.443C87.7507 21.1698 88 20.9201 88 20.6119V7.57874C88 7.27057 87.7507 7.0208 87.443 7.0208H76.0216V3.87753C76.0216 3.56936 75.7723 3.31959 75.4646 3.31959H57.7334C57.4258 3.31959 57.1764 3.56936 57.1764 3.87753C57.1764 4.1857 57.4258 4.43548 57.7334 4.43548H74.9077V7.02098H65.1397C64.8321 7.02098 64.5827 7.27075 64.5827 7.57892V9.55702H59.688C59.3803 9.55702 59.131 9.80679 59.131 10.115C59.131 10.4231 59.3803 10.6729 59.688 10.6729H64.5827V20.6121C64.5827 20.9203 64.8321 21.17 65.1397 21.17H68.6812V49.7973H67.0361C65.8192 46.8019 63.0815 44.5845 59.7875 44.1128V39.8922C59.7875 36.2453 58.002 32.9871 55.2191 30.9971C57.8483 29.5987 58.2731 26.3109 57.4365 23.771C60.3166 21.2119 60.5511 16.4978 57.8114 13.6953C56.3865 12.2708 55.3845 10.0861 54.9898 7.54098C54.078 1.84179 49.4458 -0.00723201 43.7512 2.12413e-05C38.4282 0.00671655 33.2987 1.86392 32.4571 7.56646C32.0786 10.1311 30.5223 12.9798 29.6577 13.6488C26.395 16.1731 27.2846 21.3768 29.9794 23.7712C29.1429 26.3111 29.5676 29.5987 32.1969 30.9973C29.4139 32.9872 27.6285 36.2456 27.6285 39.8923V44.2149C24.5966 44.8512 22.1079 46.981 20.9635 49.7977H18.7347V34.5536H24.7185C25.0262 34.5536 25.2755 34.3038 25.2755 33.9956V20.9625C25.2755 20.6543 25.0262 20.4045 24.7185 20.4045H18.7347V10.6727H27.712C28.0196 10.6727 28.269 10.4229 28.269 10.1148C28.269 9.8066 28.0196 9.55683 27.712 9.55683H18.1779C17.8703 9.55683 17.621 9.8066 17.621 10.1148V20.4045H12.5084V4.43548H29.7694C30.0771 4.43548 30.3264 4.1857 30.3264 3.87753C30.3264 3.56936 30.0771 3.31959 29.7694 3.31959H11.9515C11.6438 3.31959 11.3945 3.56936 11.3945 3.87753V20.4045H0.556962C0.249333 20.4045 0 20.6543 0 20.9625V33.9956C0 34.3038 0.249333 34.5536 0.556962 34.5536H3.66258V40.4575C3.66258 40.943 4.26967 41.1966 4.61332 40.852L10.9007 34.5536H11.3947V61.2284C10.8777 61.4851 10.301 61.6214 9.72419 61.6214H0.556962C0.249333 61.6214 0 61.8712 0 62.1794C0 62.4875 0.249333 62.7373 0.556962 62.7373H9.72419C10.4852 62.7373 11.2462 62.5552 11.9251 62.2112L18.102 59.0792C18.9263 58.6612 19.8505 58.4402 20.7747 58.4402H25.0668C25.8178 58.4402 26.4475 58.9606 26.6167 59.658C26.6168 59.6588 26.6167 59.6595 26.6168 59.6602C26.6473 59.7873 26.6627 59.9119 26.6627 60.0311V71.2774C26.6627 71.6138 26.3896 71.8874 26.0539 71.8874C24.0305 71.8874 22.3839 70.2383 22.3836 68.2115L22.3832 65.8759C22.2079 65.2806 21.873 65.1701 21.3784 65.5441C21.3617 65.5666 19.6819 67.7995 16.5847 69.0387C16.2989 69.1531 16.1599 69.4776 16.2741 69.7638C16.3881 70.0499 16.7122 70.1892 16.9979 70.075C18.9668 69.2872 20.398 68.151 21.2695 67.3134L21.2696 68.2115C21.2702 70.2468 22.5443 71.9885 24.335 72.6819L25.0601 80.255H18.402C17.647 80.255 16.9174 80.0305 16.2926 79.6058L12.1639 76.7995C11.3537 76.2488 10.4079 75.9577 9.429 75.9577H0.556962C0.249333 75.9577 0 76.2075 0 76.5157C0 76.8239 0.249333 77.0736 0.556962 77.0736H9.429C10.1841 77.0736 10.9137 77.2981 11.5384 77.7229L15.667 80.5291C16.4772 81.0798 17.4229 81.3709 18.4018 81.3709H25.1671L25.7536 87.4954C25.7812 87.7841 26.0237 88 26.3074 88C26.3252 88 26.343 87.9993 26.3612 87.9974C26.6673 87.968 26.8918 87.6954 26.8625 87.3887L25.4816 72.9675C26.5131 73.0914 27.7768 72.5234 27.7768 71.2772V65.1493H34.3183L32.1889 87.3885C32.1595 87.6952 32.384 87.9678 32.6901 87.9972C32.7083 87.9989 32.7262 87.9998 32.744 87.9998C33.0277 87.9998 33.2701 87.7837 33.2978 87.4952L33.8919 81.2917C36.7725 81.2537 38.303 77.358 36.1454 75.3788C36.6995 75.1694 37.1865 74.8218 37.5597 74.3736H50.4747C50.8427 74.7998 51.3138 75.1322 51.8495 75.3343C49.6903 77.316 51.2231 81.2134 54.1074 81.247L54.7057 87.4951C54.7334 87.7837 54.9759 87.9996 55.2595 87.9996C55.2774 87.9996 55.2952 87.9989 55.3134 87.997C55.6195 87.9676 55.844 87.695 55.8147 87.3883L53.6852 65.1491H60.2236V71.3106C60.2236 72.5569 61.4873 73.1247 62.5186 73.0008L61.1409 87.3883C61.1115 87.695 61.336 87.9676 61.6421 87.997C61.6603 87.9987 61.6782 87.9996 61.696 87.9996C61.9797 87.9996 62.2221 87.7835 62.2498 87.4951L62.8329 81.4042H69.5983C70.5773 81.4042 71.523 81.1131 72.3332 80.5624L76.4618 77.7562C77.0865 77.3314 77.816 77.1069 78.5712 77.1069H87.443C87.7507 77.1069 88 76.8571 88 76.549C88 76.2408 87.7507 75.991 87.443 75.991H78.571C77.5919 75.991 76.6461 76.2821 75.8361 76.8328L71.7076 79.639C71.0827 80.0638 70.3532 80.2883 69.598 80.2883H62.9395L63.6647 72.7152C65.4555 72.022 66.7298 70.2801 66.7302 68.2448L66.7304 67.3407C67.6007 68.1795 69.0358 69.3223 71.0138 70.1139C71.2995 70.2279 71.6235 70.0887 71.7376 69.8027C71.8516 69.5165 71.7126 69.1919 71.427 69.0776C68.33 67.8382 66.6502 65.6055 66.634 65.5837C66.3602 65.2116 65.6168 65.3745 65.6168 65.9092L65.6164 68.2446C65.6161 70.2669 63.8945 71.9205 61.9461 71.9205C61.6104 71.9205 61.3373 71.6469 61.3373 71.3106C61.3373 71.3106 61.3574 59.7958 61.3902 59.6655C61.5686 58.9812 62.1917 58.4737 62.9332 58.4737H67.2253C68.1493 58.4737 69.0737 58.6946 69.898 59.1127L76.0749 62.2446C76.7538 62.5889 77.5148 62.771 78.2758 62.771H87.443C87.7507 62.771 88 62.5212 88 62.213C88 61.9048 87.7507 61.6551 87.443 61.6551H78.2758C77.461 61.5993 76.7095 61.37 76.0216 60.9669V21.1698H77.0993ZM65.6968 8.13668H86.8861V20.054H83.7805C83.4728 20.054 83.2235 20.3037 83.2235 20.6119V25.7267L77.7237 20.2174C77.6192 20.1127 77.4775 20.054 77.3299 20.054H65.6966V8.13668H65.6968ZM66.5804 52.717H50.3683C50.6557 48.4873 54.1803 45.1335 58.4743 45.1335C62.7683 45.1335 66.293 48.4873 66.5804 52.717ZM58.6737 39.892V40.8436C56.3092 40.996 54.0756 40.9792 51.9757 40.8196V30.5861C55.8254 31.865 58.6737 35.8248 58.6737 39.892ZM31.0263 28.2665C30.1376 26.3012 31.1392 23.8351 31.1492 23.8111C31.245 23.582 31.178 23.3172 30.9849 23.1613C28.3761 21.0553 27.9766 16.9816 30.3721 14.5054C31.5274 13.5761 33.1587 10.4438 33.5594 7.72938C34.4906 1.42092 39.2881 1.25632 43.8363 1.11535C48.8201 0.960984 53.072 2.60301 53.8898 7.7145C54.3201 10.4897 55.4335 12.8943 57.0203 14.4803C59.4401 16.9553 59.0517 21.0462 56.4318 23.1613C56.2387 23.3172 56.1717 23.582 56.2675 23.8111C57.2349 26.127 56.7047 29.2792 54.0801 30.2863C52.3511 29.4449 50.5456 28.981 48.6634 28.8949V25.4526C50.903 23.8822 52.3717 21.2805 52.3717 18.3401V11.4155C52.2911 10.9547 52.0258 10.7865 51.5756 10.9115C50.8384 11.2625 50.0484 11.4403 49.2276 11.4403C47.0629 11.4403 45.0965 10.1581 44.2176 8.17388C43.8782 7.73162 43.5388 7.73162 43.1995 8.17388C42.3206 10.1581 40.3539 11.4403 38.1894 11.4403C37.3686 11.4403 36.5785 11.2623 35.8414 10.9115C35.3912 10.7865 35.1259 10.9547 35.0453 11.4155V18.3401C35.0453 21.2805 36.5139 23.8822 38.7536 25.4526V28.8949C36.8714 28.981 35.066 29.4449 33.337 30.2863C32.2195 29.8577 31.44 29.1813 31.0263 28.2665ZM43.7082 25.9027C39.5454 25.9027 36.1587 22.5102 36.1587 18.3401V12.237C36.8109 12.449 37.4906 12.5561 38.1888 12.5561C40.4345 12.5561 42.5029 11.4096 43.7082 9.56371C44.9132 11.4096 46.9816 12.5561 49.2273 12.5561C49.9255 12.5561 50.6052 12.449 51.2574 12.237V18.34C51.2574 22.5102 47.8709 25.9027 43.7082 25.9027ZM39.867 29.0247V26.116C42.4277 27.3195 44.9884 27.3195 47.5491 26.116V29.0247C47.5491 31.1464 45.8261 32.8725 43.7082 32.8725C41.5902 32.8725 39.867 31.1464 39.867 29.0247ZM33.6193 31.4044C35.2019 30.658 37.1141 30.1548 38.8507 30.0065C39.3069 32.2749 41.3114 33.9886 43.708 33.9886C46.1048 33.9886 48.1091 32.2749 48.5652 30.0065C49.3364 30.054 50.1019 30.147 50.8616 30.2855V40.7209C41.9756 39.8196 35.5331 36.4257 31.3157 33.2619C31.9822 32.534 32.7572 31.9052 33.6193 31.4044ZM28.7426 39.892C28.7426 37.7461 29.4325 35.7511 30.6103 34.1269C38.619 40.1509 48.7631 42.5891 58.6737 41.9634V44.0226C58.6073 44.0211 58.5412 44.0176 58.4743 44.0176C54.6064 44.0176 51.2878 46.4115 49.9123 49.7973H38.0875C36.712 46.4117 33.3936 44.0176 29.5255 44.0176C29.2615 44.0176 29.0008 44.0313 28.7424 44.0533L28.7426 39.892ZM29.5257 45.1335C33.8197 45.1335 37.3441 48.4873 37.6317 52.717H21.4196C21.707 48.4873 25.2317 45.1335 29.5257 45.1335ZM10.6699 33.4377C10.5223 33.4377 10.3805 33.4965 10.2761 33.6012L4.77632 39.1105V33.9956C4.77632 33.6875 4.52699 33.4377 4.21936 33.4377H1.11392V21.5204H24.1619V33.4377H10.6699ZM17.5991 58.0833L12.5086 60.6645V34.5536H17.6212V50.3553C17.6212 50.6634 17.8705 50.9132 18.1781 50.9132H20.5907C20.4375 51.4942 20.3401 52.0975 20.3031 52.717H19.4471C19.1394 52.717 18.8901 52.9668 18.8901 53.275C18.8901 53.5831 19.1394 53.8329 19.4471 53.8329H20.3028C20.3757 55.0492 20.6854 56.2345 21.2156 57.3241C19.9762 57.2899 18.7707 57.543 17.5991 58.0833ZM25.067 57.3241H22.481C21.8671 56.2555 21.5017 55.0645 21.4178 53.8329H37.6319C37.5019 55.7734 36.696 57.5734 35.3253 58.9716H27.5603C27.1469 58.0041 26.185 57.3241 25.067 57.3241ZM27.7768 60.0874H36.8633V64.033H27.7768V60.0874ZM37.7873 65.0078C38.9712 66.3881 37.9083 68.7891 36.0575 68.7891H35.089L35.4376 65.1489C35.4375 65.1489 37.6891 65.0946 37.7873 65.0078ZM33.999 80.1698C33.9686 78.7065 34.2894 77.1367 34.4292 75.6784C36.841 76.3044 36.5412 80.0008 33.999 80.1698ZM34.9522 74.4835H34.5435L34.9819 69.9067C37.9118 69.9446 37.8877 74.4835 34.9522 74.4835ZM38.1768 73.2573C38.5824 71.9748 38.2711 70.7847 37.2429 69.6868C39.6147 68.7973 40.2648 65.2657 37.9772 63.6931V59.5293C37.9772 59.2211 37.7279 58.9714 37.4202 58.9714H36.807C37.9638 57.4962 38.6376 55.7215 38.7486 53.8327H39.0429C39.3505 53.8327 39.5998 53.583 39.5998 53.2748C39.5998 52.9666 39.3505 52.7168 39.0429 52.7168H38.7484C38.7115 52.0973 38.614 51.494 38.4608 50.913H49.5392C49.386 51.494 49.2885 52.0973 49.2516 52.7168H48.6763C48.3686 52.7168 48.1193 52.9666 48.1193 53.2748C48.1193 53.583 48.3686 53.8327 48.6763 53.8327H49.2512C49.3622 55.7215 50.036 57.4962 51.1928 58.9714H50.5796C50.2719 58.9714 50.0226 59.2211 50.0226 59.5293V63.6441C49.1012 64.2748 48.5396 65.3224 48.5396 66.4575C48.5396 67.9157 49.4618 69.159 50.7511 69.6422C49.71 70.7557 49.4036 71.9606 49.8325 73.2571H38.1768V73.2573ZM50.7589 72.1474C50.7589 70.8948 51.7696 69.8752 53.0168 69.8617L53.4552 74.4387H53.0417C51.783 74.4388 50.7589 73.4128 50.7589 72.1474ZM53.5695 75.6327L53.9997 80.1256C50.2658 79.157 52.4473 75.3909 53.5695 75.6327ZM52.9099 68.7447H51.9365C50.6778 68.7447 49.6535 67.7188 49.6535 66.4532C49.6535 65.9079 49.8485 65.3916 50.1869 64.9865C50.2875 65.0868 52.5655 65.1489 52.5655 65.1489L52.9099 68.7447ZM51.1365 64.033V60.0874H60.223V64.033H51.1365ZM60.4558 58.9716H52.6747C51.304 57.5734 50.4979 55.7732 50.3681 53.8329H66.582C66.4972 55.0773 66.1248 56.2799 65.4984 57.3578H62.933C61.8282 57.3578 60.8773 58.0223 60.4558 58.9716ZM74.9077 60.4021L70.4007 58.117C69.2235 57.5754 68.0125 57.3223 66.7675 57.3578C67.3083 56.2585 67.6237 55.0617 67.6974 53.8329H68.2722C68.5798 53.8329 68.8292 53.5831 68.8292 53.275C68.8292 52.9668 68.5798 52.717 68.2722 52.717H67.6969C67.6599 52.0975 67.5625 51.4942 67.4093 50.9132H69.2382C69.5458 50.9132 69.7951 50.6634 69.7951 50.3553V21.1698H74.9077V60.4021Z" fill="black"/>
<path d="M75.172 14.1612C75.172 12.2126 73.5897 10.6275 71.6446 10.6275C69.6995 10.6275 68.1172 12.2126 68.1172 14.1612C68.1172 16.1097 69.6995 17.6948 71.6446 17.6948C73.5897 17.6948 75.172 16.1095 75.172 14.1612ZM69.2311 14.1612C69.2311 12.828 70.3138 11.7434 71.6446 11.7434C72.9754 11.7434 74.0581 12.828 74.0581 14.1612C74.0581 15.4943 72.9754 16.5789 71.6446 16.5789C70.3138 16.5789 69.2311 15.4943 69.2311 14.1612Z" fill="black"/>
<path d="M80.9376 17.6948C82.8827 17.6948 84.465 16.1097 84.465 14.1612C84.465 12.2126 82.8827 10.6275 80.9376 10.6275C78.9925 10.6275 77.4102 12.2126 77.4102 14.1612C77.4102 16.1097 78.9925 17.6948 80.9376 17.6948ZM80.9376 11.7434C82.2684 11.7434 83.3511 12.828 83.3511 14.1612C83.3511 15.4943 82.2684 16.5789 80.9376 16.5789C79.6068 16.5789 78.5241 15.4943 78.5241 14.1612C78.5241 12.828 79.6066 11.7434 80.9376 11.7434Z" fill="black"/>
<path d="M17.5262 31.6739C17.7124 31.8016 17.9705 31.8018 18.1567 31.6739C18.4671 31.4749 22.0357 29.1354 22.405 26.556C22.7019 24.4846 20.3233 22.5498 18.4753 23.5288C18.4686 23.5324 18.1444 23.7061 17.8366 23.9568C17.4414 23.627 16.8044 23.2244 16.0391 23.2086C14.1774 23.516 13.2569 24.6319 13.2777 26.556C13.6475 29.1356 17.2147 31.4741 17.5262 31.6739ZM16.0116 24.3243C16.8773 24.3386 16.9843 24.8508 17.5431 25.2071C17.7791 25.3574 18.0904 25.3085 18.2701 25.0937C18.2764 25.086 18.911 24.3369 19.6714 24.3245C20.7621 24.559 21.3057 25.2501 21.3026 26.3978C21.0687 28.0307 18.8321 29.8529 17.8416 30.544C16.8512 29.8529 14.5815 28.0353 14.3805 26.3978C14.2021 24.9436 15.5681 24.317 16.0116 24.3243Z" fill="black"/>
<path d="M3.38899 25.7206H8.41817C8.7258 25.7206 8.97514 25.4708 8.97514 25.1627C8.97514 24.8545 8.7258 24.6047 8.41817 24.6047H3.38899C3.08136 24.6047 2.83203 24.8545 2.83203 25.1627C2.83203 25.4708 3.08155 25.7206 3.38899 25.7206Z" fill="black"/>
<path d="M10.2768 29.2593H3.38899C3.08136 29.2593 2.83203 29.509 2.83203 29.8172C2.83203 30.1254 3.08136 30.3751 3.38899 30.3751H10.2768C10.5844 30.3751 10.8337 30.1254 10.8337 29.8172C10.8337 29.509 10.5844 29.2593 10.2768 29.2593Z" fill="black"/>
</svg>
