<?xml version="1.0" encoding="UTF-8"?>
<svg id="Ebene_1" data-name="Ebene 1" xmlns="http://www.w3.org/2000/svg" version="1.1" viewBox="0 0 694.5 694.5">
  <defs>
    <style>
      .cls-1 {
        fill: #000;
        stroke-width: 0px;
      }
    </style>
  </defs>
  <path class="cls-1" d="M114.1,562.4c0-31.9,0-63.7,0-95.6,0-7.1,1-6.3-6.4-6.4-2.4,0-4.8,0-7.2,0-5.2-.2-9.5-2.3-11.7-7.2-.9-2-1.1-4.4-1.2-6.7-.2-3.4-.1-6.8,0-10.1,0-2.2.4-4.4.4-6.6,0-5.4,0-10.9,0-16.3,0-4.6-.2-9.1-.5-13.7-.3-6.2,2.5-10.7,8.3-12.9,10.3-3.9,20.5-7.8,30.8-11.8,10.1-3.9,20.2-7.8,30.3-11.7,7.3-2.8,14.5-5.8,21.8-8.7,9.5-3.6,19-7.1,28.4-10.7,7.4-2.8,14.7-5.9,22.1-8.7,9.5-3.6,19-7,28.5-10.6,4.8-1.8,9.5-3.8,14.3-5.6,8.5-3.3,17-6.7,25.6-9.9,6.8-2.5,13.8-4.7,20.6-7.3,4.3-1.6,8.3-3.9,12.6-5.7,4.7-1.9,9.7-3.3,14.3-5.4,6.4-2.8,12.1-1.8,18.4.8,9.5,4.1,19.5,7.1,29.3,10.9,11.6,4.5,23.1,9.3,34.6,13.9,6.1,2.4,12.3,4.5,18.4,6.8,5.1,1.9,10.1,4,15.1,5.9,8.3,3.2,16.7,6.4,25,9.6,6.2,2.4,12.5,4.9,18.7,7.2,7.5,2.8,15,5.6,22.4,8.5,8.6,3.3,17.1,6.8,25.7,10.2,6.2,2.4,12.5,4.7,18.7,7,9,3.4,18.1,6.8,27.1,10.2,4.4,1.7,8.9,3.4,13.2,5.4,4.3,2,6.8,5.3,6.8,10.3,0,16.9-.2,33.8,0,50.7.1,7-6.9,11.9-12,12-3.6,0-7.2.1-10.9,0-2.6,0-3.5.8-3.5,3.6.1,25.2,0,50.3,0,75.5,0,40.4,0,80.8,0,121.2,0,6-3.6,10.6-9.5,11.9-2.8.6-5.8,1.1-8.7,1.1-48.1,0-96.2,0-144.3,0-5.3,0-10.3-1.8-12.7-7-1.2-2.6-1.8-5.8-1.8-8.8-.2-24.8-.1-49.6-.1-74.4,0-7.9-2.1-15.3-5.1-22.5-4.6-10.8-11.9-19.1-21.2-25.9-5.2-3.8-11.2-6.2-17.3-8.4-9.3-3.3-18.8-3-28.3-2.2-7.6.6-14.9,3.2-21.6,7.1-10.6,6.1-18.5,14.6-24.1,25.4-2.9,5.7-5.5,11.6-6.2,18.1-.5,5.5-1.3,11-1.3,16.4-.1,22.5,0,44.9-.1,67.4,0,5.3-1.5,10.5-7.1,13-2.1.9-4.5,1.8-6.8,1.8-16.3.3-32.6.5-48.9.6-13.8,0-27.7,0-41.5,0-19.3-.1-38.6-.3-57.8-.5-7.9,0-13.5-5.7-13.5-13.6,0-32.6,0-65.2,0-97.8ZM309.9,460.9c0-.1,0-.3,0-.4-26.4,0-52.7,0-79.1,0-29.4,0-58.9,0-88.3,0-2.7,0-3.4.9-3.4,3.6,0,60.4,0,120.7,0,181.1,0,3.2.5,3.6,3.8,3.6,5.5,0,11,.1,16.5,0,7.3-.2,14.7.9,21.9-1.1,23.6.7,47.3-1.4,70.9,1.1,2.8.3,5.6,0,8.4,0,3.5,0,4-.5,4-4,0-17.8,0-35.7,0-53.5,0-7.9.9-15.5,2.6-23.2,1.7-7.5,4.2-14.5,7.5-21.3,4.4-9,10.2-17,17.4-24,7-6.8,14.8-12.5,23.9-16.1,5.1-2,10.5-3.7,15.9-5,5.6-1.3,11.4-2.2,17.1-2.5,5.2-.2,10.4.4,15.6,1.1,4.9.7,9.8,1.4,14.4,3,8.1,2.8,15.9,6.4,23,11.3,9.8,6.8,18,15.1,24.5,25.1,4.3,6.7,7.7,13.9,10,21.6,2.2,7.3,3.7,14.6,3.7,22.2,0,20,0,39.9,0,59.9,0,5.3.2,5.6,5.7,5.5,11.9-.2,23.7-.3,35.6-.8,17.6-.7,35.2-1.2,52.8.8,1.4.2,2.9-.3,4.4-.2,7.9,0,15.9.2,23.8.3,4.3,0,4.7-.5,4.7-4.8,0-59.7,0-119.4,0-179.2,0-4.3,0-4.4-4.4-4.3-13.4.5-26.9-.2-40.3.7-14.9,1-29.9-.1-44.8-.2-10.5,0-21,0-31.5,0-45.4,0-90.8,0-136.2,0ZM558.3,435.3h0c10.8,0,21.5,0,32.3,0,1.6,0,3.3.1,3.3-2.3,0-8.1,0-16.2,0-24.2,0-.9-.9-2.2-1.7-2.5-4.6-2-9.3-3.8-14-5.6-8.4-3.2-17-6.2-25.4-9.4-8.4-3.2-16.8-6.7-25.2-9.9-10.2-4-20.3-7.9-30.5-11.8-7.3-2.8-14.7-5.3-22-8.1-10.2-3.8-20.4-7.8-30.5-11.7-9.6-3.7-19.2-7.6-28.9-11.3-18.7-7.2-37.5-14.5-56.3-21.6-2.4-.9-5.4-2.3-7.5-1.6-9.5,3-18.7,6.7-28,10.2-9.8,3.8-19.6,7.7-29.5,11.5-6.2,2.4-12.5,4.6-18.7,7-8.3,3.2-16.6,6.5-24.9,9.8-6.2,2.4-12.5,4.6-18.7,7-8.4,3.3-16.7,6.6-25.1,9.9-5.3,2-10.6,3.9-15.9,5.9-8.6,3.3-17.2,6.6-25.8,9.9-8.5,3.2-16.9,6.5-25.4,9.7-8.3,3.2-16.5,6.5-24.8,9.5-2.6.9-3.4,2.2-3.4,4.8.1,6.6,0,13.2,0,19.8,0,4.5.4,4.9,4.9,4.9,40.9-.2,81.8-.6,122.8-.6,95.9,0,191.8.4,287.7.6,10.4,0,20.8,0,31.2,0Z"/>
  <path class="cls-1" d="M233.3,306.7c0-1.5,0-2.5,0-3.6,0-27.1,0-54.2,0-81.4,0-8.1,0-16.3,0-24.4,0-2.4-1-3.3-3.2-3.4-4.4-.3-8.4-4.5-9.9-8.5-1.3-3.4-.2-6.3.3-9.3.4-2.7,5.7-6.7,8.6-7.2,6-1.1,4.6.7,5.9-5.7,1.2-6.2,3-12.2,4.7-18.3,3.9-13.7,10.9-25.8,19.7-37,9.2-11.7,20.1-21.5,33.1-28.8,6-3.3,12.1-6.3,18.3-9.2,2.8-1.3,6-1.8,9.1-2.6,5-1.3,10-2.5,15-3.7,1.6-.4,4-.3,4.5-1.2.9-1.6.8-3.9.8-5.9,0-11.7,0-23.4,0-35.1,0-5.6,3.9-10.3,7.3-11.5,9.6-3.2,13.9.5,16.7,5,1.1,1.8,1.6,4.1,1.6,6.3.1,12.8.1,25.6,0,38.4,0,2.9,1.1,3.4,3.7,3.8,6.1,1,12.3,2,18.1,4,7.5,2.5,14.8,5.6,21.8,9.2,15.6,8.2,29,19.3,39.1,34,4.8,7,9.3,14.2,13.1,21.7,2.6,5,4,10.7,5.7,16.1,1.4,4.7,2.6,9.4,3.8,14.2.2,1,.2,2,.1,3.1-.2,2.3,1.1,2.8,3,2.6,8.5-.5,14.7,6.7,13.9,14.4-.6,6.2-5.4,10.7-11.4,11.1-1.2,0-2.3.4-4,.7v112.3c-6.1-2.5-11.6-4.7-17.1-6.9-1.3-.5-2.6-1.5-4-1.7-4.2-.6-4.4-3.2-4.4-6.7.1-31,0-62,0-93.1,0-4.2-.5-4.7-4.8-4.7-6.5,0-13,0-19.5,0-2.6,0-3.7.8-3.7,3.5,0,18.5,0,37,.2,55.4,0,9.6.7,19.3,1.1,28.9,0,1.5.4,2.9.6,4.8-8.5-2.8-16.5-5.6-24.6-8.1-2.3-.7-2.8-1.8-2.8-4,0-25.4,0-50.9,0-76.3,0-3.9-.1-4.1-4.1-4.1-7,.1-14,.4-21.1.3-2.1,0-2.5.9-2.7,2.5,0,.7,0,1.5,0,2.2,0,21,0,42,0,63,0,1.1,0,2.2,0,3.6-2.6-1-5.2-1.4-7.2-2.8-4.7-3.3-8.8-.8-13.1.7-1.6.5-3.2,1.2-5.3,2.1v-3.5c0-21.1,0-42.2,0-63.2,0-4.4-.5-4.9-4.9-4.9-6.3,0-12.6,0-18.9,0-4,0-4.2.2-4.2,4.2,0,24.8,0,49.6,0,74.4,0,2.7-.3,4.5-3.4,5.5-7.1,2.3-14,5.1-21,7.7-.4.1-.9,0-1.6,0,0-4.1,0-8.1,0-12.2,0-4.8.4-9.6.4-14.4,0-20.2,0-40.5,0-60.7,0-3.9-.5-4.5-4.4-4.5-6.5,0-13,0-19.5,0-3.7,0-4,.3-4,4,0,31.1,0,62.2,0,93.3,0,5.8-.3,6.1-5.9,8-5.2,1.8-10.3,4-15.4,6-1.3.5-2.5.9-4.2,1.5ZM444.8,168c-1.5-5.3-2.7-10-4.2-14.7-1.6-4.9-3-10-5.4-14.5-5.1-9.5-11.3-18.3-19.2-25.9-7.1-6.7-14.8-12.5-23.7-16.5-4.6-2.1-9.4-3.8-14.2-5.2-5.4-1.5-10.9-3.3-16.5-3.6-7-.3-14.2-1.2-21.2.8-4.8,1.3-9.9,1.5-14.7,3-9.3,2.9-18.1,7.2-25.9,13-10.3,7.7-19.3,16.9-25.5,28.4-3.5,6.5-6.3,13.3-9,20.1-1.5,4-1.9,8.4-3.2,12.4-.7,2.1-.2,2.7,1.6,3,1,.2,2,.3,3,.3,11.7,0,23.4,0,35.1,0,45.2,0,90.4,0,135.7,0,2.3,0,4.6-.5,7.2-.8Z"/>
</svg>